<?xml version="1.0" standalone="no"?>
<!DOCTYPE svg PUBLIC "-//W3C//DTD SVG 20010904//EN"
 "http://www.w3.org/TR/2001/REC-SVG-20010904/DTD/svg10.dtd">
<svg version="1.0" xmlns="http://www.w3.org/2000/svg"
 width="919.000000pt" height="919.000000pt" viewBox="0 0 919.000000 919.000000"
 preserveAspectRatio="xMidYMid meet">
<metadata>
Created by potrace 1.11, written by Peter Selinger 2001-2013
</metadata>
<g transform="translate(0.000000,919.000000) scale(0.100000,-0.100000)"
fill="#000000" stroke="none">
<path d="M4478 8893 c-54 -2 -98 -7 -98 -10 0 -3 126 -174 280 -379 l280 -373
-245 -290 c-135 -160 -245 -293 -245 -297 0 -3 30 -4 68 -2 92 7 356 -8 483
-27 698 -105 1309 -454 1743 -999 345 -432 551 -927 632 -1521 22 -162 26
-615 6 -775 -67 -550 -242 -1016 -535 -1429 -335 -471 -843 -836 -1397 -1004
-112 -34 -304 -78 -402 -92 l-48 -6 -265 -315 c-146 -173 -268 -320 -271 -327
-2 -7 115 -172 261 -367 212 -282 271 -356 291 -358 34 -5 259 24 424 54 1829
333 3203 1763 3460 3603 33 235 43 428 37 726 -7 383 -41 650 -128 998 -270
1083 -952 2008 -1898 2576 -519 312 -1125 513 -1765 586 -124 14 -519 37 -556
33 -8 -1 -59 -4 -112 -5z"/>
<path d="M3895 8840 c-771 -119 -1470 -422 -2065 -896 -173 -138 -505 -470
-644 -644 -115 -143 -299 -414 -385 -566 -229 -407 -398 -878 -485 -1354 -53
-289 -61 -397 -61 -805 1 -411 12 -542 71 -848 133 -690 421 -1319 850 -1857
138 -173 460 -496 634 -634 636 -507 1383 -811 2244 -912 72 -8 239 -18 371
-21 204 -5 238 -4 229 8 -6 8 -134 177 -283 377 l-272 363 170 202 c93 111
206 245 250 297 44 52 81 97 81 100 0 4 -80 11 -177 18 -571 39 -1058 217
-1498 546 -156 117 -413 374 -527 526 -322 432 -506 886 -585 1445 -27 197
-25 685 5 882 55 368 136 630 292 948 306 624 828 1104 1473 1354 94 36 235
78 414 123 51 13 55 17 310 308 142 163 264 303 272 313 12 15 -16 56 -260
382 -158 211 -280 365 -289 364 -8 0 -69 -9 -135 -19z"/>
</g>
</svg>
